<?xml version="1.0" encoding="UTF-8"?>
<svg xmlns="http://www.w3.org/2000/svg"
     viewBox="0 0 1024 1024"
     role="img"
     aria-labelledby="bluesky-title">
  <title id="bluesky-title">bluesky</title>
  <path fill="currentColor" d="M222 120.8c117.2 88.4 243.6 267.6 290 364v254c0-5.6-2 0.8-6.4 14-24 71.2-118.8 349.6-334.8 127.2-113.6-117.2-61.2-234.4 146-269.6-118.4 20.4-251.6-13.2-288.4-144.4-10.4-38-28.4-270-28.4-301.6 0-156.8 137.2-107.6 222-43.6zM802 120.8c-117.2 88.4-243.6 267.6-290 364v254c0-5.6 2 0.8 6.4 14 24 71.2 118.8 349.6 334.8 127.2 113.6-117.2 61.2-234.4-146-269.6 118.4 20.4 251.6-13.2 288.4-144.4 10.4-37.6 28.4-270 28.4-301.2 0-157.2-137.2-107.6-222-44z"/>
</svg>
