<?xml version="1.0" encoding="UTF-8"?>
<svg xmlns="http://www.w3.org/2000/svg"
     viewBox="0 0 1024 1024"
     role="img"
     aria-labelledby="forgejo-title">
  <title id="forgejo-title">Forgejo</title>
  <path fill="currentColor" d="M372.169 807.226c34.71 20.098 58.085 57.644 58.085 100.605 0 64.116-52.053 116.169-116.169 116.169s-116.169-52.053-116.169-116.169c0-42.96 23.371-80.507 58.085-100.605v-443.662c0-167.581 137.899-305.48 305.48-305.48h47.831c20.098-34.71 57.644-58.085 100.605-58.085 64.116 0 116.169 52.053 116.169 116.169s-52.053 116.169-116.169 116.169c-42.96 0-80.507-23.371-100.605-58.085h-47.831c-103.854 0-189.31 85.46-189.31 189.31v82.579c52.197-41.527 118.071-66.444 189.31-66.444h47.831c20.098-34.71 57.644-58.085 100.605-58.085 64.116 0 116.169 52.053 116.169 116.169s-52.053 116.169-116.169 116.169c-42.96 0-80.507-23.371-100.605-58.085h-47.831c-103.854 0-189.31 85.46-189.31 189.31v122.051zM314.085 860.505c-26.122 0-47.329 21.207-47.329 47.329s21.207 47.329 47.329 47.329c26.122 0 47.329-21.207 47.329-47.329s-21.207-47.329-47.329-47.329zM709.915 390.455c-26.122 0-47.329 21.207-47.329 47.329s21.207 47.329 47.329 47.329c26.122 0 47.329-21.207 47.329-47.329s-21.207-47.329-47.329-47.329zM709.915 68.84c-26.122 0-47.329 21.207-47.329 47.329s21.207 47.329 47.329 47.329c26.122 0 47.329-21.207 47.329-47.329s-21.207-47.329-47.329-47.329z"/>
</svg>
