<?xml version="1.0" encoding="UTF-8"?>
<svg xmlns="http://www.w3.org/2000/svg"
     viewBox="0 0 1024 1024"
     role="img"
     aria-labelledby="gamejolt-title">
  <title id="gamejolt-title">Game Jolt</title>
  <path fill="currentColor" d="M210.8-3.8h60.2v-60.2h-60.2v60.2zM271.1 960v-120.5h-60.2v-120.5h-60.2v-120.5h-60.3v-120.5h-60.3v-120.5h361.4v-120.5h-60.2v-120.5h-60.2v-120.5h60.2v60.2h60.2v60.2h60.2v60.2h60.3v60.2h60.2v60.2h60.2v60.2h60.2v60.2h60.2v60.2h60.2v60.2h60.2v60.2h60.2v60.2h-180.5v60.2h60.2v60.2h60.2v60.2h60.2v61h60.2v60.2h-722.6zM692.7 478.1h-60.2v60.2h60.2v-60.2zM752.9 779.3h-60.2v-60.2h-60.2v-60.2h-60.2v-60.2h-60.3v-60.2h60.2v-60.2h-60.2v60.2h-60.2v-60.2h-60.2v60.2h-60.2v-60.2h-60.2v60.2h-60.2v60.2h60.2v120.4h60.2v120.4h421.6v-60.2zM271.1 598.6h60.2v-60.2h-60.2v60.2zM391.5 598.6h60.2v-60.2h-60.2v60.2z"/>
</svg>
