<?xml version="1.0" encoding="UTF-8"?>
<svg xmlns="http://www.w3.org/2000/svg"
     viewBox="0 0 1024 1024"
     role="img"
     aria-labelledby="ghost-title">
  <title id="ghost-title">ghost</title>
  <path fill="currentColor" d="M51.2 819.2h308.224c26.624 0 48.128 21.504 48.128 48.128v108.544c0 26.624-21.504 48.128-48.128 48.128h-308.224c-26.624 0-48.128-21.504-48.128-48.128v-108.544c0-26.624 21.504-48.128 48.128-48.128zM659.456 819.2h308.224c26.624 0 48.128 21.504 48.128 48.128v108.544c0 26.624-21.504 48.128-48.128 48.128h-308.224c-26.624 0-48.128-21.504-48.128-48.128v-108.544c0-26.624 21.504-48.128 48.128-48.128zM51.2 409.6h916.48c26.624 0 48.128 21.504 48.128 48.128v108.544c0 26.624-21.504 48.128-48.128 48.128h-916.48c-26.624 0-48.128-21.504-48.128-48.128v-108.544c0-26.624 21.504-48.128 48.128-48.128zM51.2 0h512c26.624 0 48.128 21.504 48.128 48.128v108.544c0 26.624-21.504 48.128-48.128 48.128h-512c-26.624 0-48.128-21.504-48.128-48.128v-108.544c0-26.624 21.504-48.128 48.128-48.128zM861.184 0h106.496c26.624 0 48.128 21.504 48.128 48.128v108.544c0 26.624-21.504 48.128-48.128 48.128h-106.496c-26.624 0-48.128-21.504-48.128-48.128v-108.544c0-26.624 21.504-48.128 48.128-48.128z"/>
</svg>
