<?xml version="1.0" encoding="UTF-8"?>
<svg xmlns="http://www.w3.org/2000/svg"
     viewBox="0 0 1024 1024"
     role="img"
     aria-labelledby="playstation-title">
  <title id="playstation-title">PlayStation</title>
  <path fill="currentColor" d="M1022 276c-10 48-86 74-206 84-84 6-168-14-250-42l-14-4v362c0 30 64 28 64-6v-282c130-38 196 20 198 164 0 122-82 194-216 230l-212 54v-428l-64-22 64-20v-108l-152-52c-52-18-94 24-48 40l38 14-142 44c-44-14-84-46-82-90s106-56 184-68c74-12 142-6 202 16v46-96l166-54v4l2-4 144 52 240 84-156 48-230-78v54l146 50 86 30c90 16 126-14 40-42l-42-14 156-48h2c62 22 90 54 84 82zM82 304l142-44 162 58v48l-64 20-236-80c-2 0-2-2-4-2z"/>
</svg>
